{
  "accessors": [
    {
      "bufferView": 1,
      "componentType": 5126,
      "count": 2074,
      "max": [
        0.061743158847093582,
        0.74970591068267822,
        -0.30978035926818848
      ],
      "min": [
        -0.73772871494293213,
        0.11149036139249802,
        -0.38592880964279175
      ],
      "type": "VEC3"
    },
    {
      "bufferView": 1,
      "byteOffset": 24888,
      "componentType": 5126,
      "count": 2074,
      "max": [
        0.99911594390869141,
        0.99996185302734375,
        0.99996411800384521
      ],
      "min": [
        -0.99837267398834229,
        -0.99940460920333862,
        -0.99966877698898315
      ],
      "type": "VEC3"
    },
    {
      "bufferView": 2,
      "componentType": 5126,
      "count": 2074,
      "max": [
        0.78431373834609985,
        0.78431373834609985,
        0.78431373834609985,
        1
      ],
      "min": [
        0.078431375324726105,
        0.67450982332229614,
        0.070588238537311554,
        1
      ],
      "type": "VEC4"
    },
    {
      "bufferView": 0,
      "componentType": 5125,
      "count": 12408,
      "max": [
        2073
      ],
      "min": [
        0
      ],
      "type": "SCALAR"
    },
    {
      "bufferView": 1,
      "byteOffset": 49776,
      "componentType": 5126,
      "count": 2454,
      "max": [
        -0.17033906280994415,
        0.38583767414093018,
        -0.31961512565612793
      ],
      "min": [
        -0.55312883853912354,
        -0.57524651288986206,
        -0.38331383466720581
      ],
      "type": "VEC3"
    },
    {
      "bufferView": 1,
      "byteOffset": 79224,
      "componentType": 5126,
      "count": 2454,
      "max": [
        0.99990183115005493,
        0.99994909763336182,
        0.99996072053909302
      ],
      "min": [
        -0.99996829032897949,
        -0.99966198205947876,
        -0.99868857860565186
      ],
      "type": "VEC3"
    },
    {
      "bufferView": 2,
      "byteOffset": 33184,
      "componentType": 5126,
      "count": 2454,
      "max": [
        0.7921568751335144,
        0.73725491762161255,
        0.12941177189350128,
        1
      ],
      "min": [
        0.68235296010971069,
        0.070588238537311554,
        0.070588238537311554,
        1
      ],
      "type": "VEC4"
    },
    {
      "bufferView": 0,
      "byteOffset": 49632,
      "componentType": 5125,
      "count": 14688,
      "max": [
        2453
      ],
      "min": [
        0
      ],
      "type": "SCALAR"
    },
    {
      "bufferView": 1,
      "byteOffset": 108672,
      "componentType": 5126,
      "count": 1696,
      "max": [
        0.69711875915527344,
        0.57029497623443604,
        -0.2933318018913269
      ],
      "min": [
        -0.43105658888816833,
        -0.53760957717895508,
        -0.38548070192337036
      ],
      "type": "VEC3"
    },
    {
      "bufferView": 1,
      "byteOffset": 129024,
      "componentType": 5126,
      "count": 1696,
      "max": [
        0.99919193983078003,
        0.99904131889343262,
        0.99990856647491455
      ],
      "min": [
        -0.99956148862838745,
        -0.99946200847625732,
        -0.99988305568695068
      ],
      "type": "VEC3"
    },
    {
      "bufferView": 2,
      "byteOffset": 72448,
      "componentType": 5126,
      "count": 1696,
      "max": [
        0.78431373834609985,
        0.78823530673980713,
        0.11372549086809158,
        1
      ],
      "min": [
        0.34509804844856262,
        0.070588238537311554,
        0.070588238537311554,
        1
      ],
      "type": "VEC4"
    },
    {
      "bufferView": 0,
      "byteOffset": 108384,
      "componentType": 5125,
      "count": 10152,
      "max": [
        1695
      ],
      "min": [
        0
      ],
      "type": "SCALAR"
    },
    {
      "bufferView": 1,
      "byteOffset": 149376,
      "componentType": 5126,
      "count": 1756,
      "max": [
        0.81484097242355347,
        0.28116828203201294,
        -0.31737717986106873
      ],
      "min": [
        0.52495652437210083,
        -0.064096860587596893,
        -0.383899986743927
      ],
      "type": "VEC3"
    },
    {
      "bufferView": 1,
      "byteOffset": 170448,
      "componentType": 5126,
      "count": 1756,
      "max": [
        0.9992789626121521,
        0.99751681089401245,
        0.99998390674591064
      ],
      "min": [
        -0.99922311305999756,
        -0.99958378076553345,
        -0.99995213747024536
      ],
      "type": "VEC3"
    },
    {
      "bufferView": 2,
      "byteOffset": 99584,
      "componentType": 5126,
      "count": 1756,
      "max": [
        0.78431373834609985,
        0.729411780834198,
        0.7921568751335144,
        1
      ],
      "min": [
        0.078431375324726105,
        0.65882354974746704,
        0.070588238537311554,
        1
      ],
      "type": "VEC4"
    },
    {
      "bufferView": 0,
      "byteOffset": 148992,
      "componentType": 5125,
      "count": 10512,
      "max": [
        1755
      ],
      "min": [
        0
      ],
      "type": "SCALAR"
    },
    {
      "bufferView": 1,
      "byteOffset": 191520,
      "componentType": 5126,
      "count": 1808,
      "max": [
        0.23008395731449127,
        0.80715727806091309,
        -0.30917924642562866
      ],
      "min": [
        -0.74691033363342285,
        0.31331053376197815,
        -0.37422493100166321
      ],
      "type": "VEC3"
    },
    {
      "bufferView": 1,
      "byteOffset": 213216,
      "componentType": 5126,
      "count": 1808,
      "max": [
        0.99949836730957031,
        0.99969679117202759,
        0.99892407655715942
      ],
      "min": [
        -0.99941504001617432,
        -0.99843937158584595,
        -0.99907064437866211
      ],
      "type": "VEC3"
    },
    {
      "bufferView": 2,
      "byteOffset": 127680,
      "componentType": 5126,
      "count": 1808,
      "max": [
        0.78431373834609985,
        0.73725491762161255,
        0.10196078568696976,
        1
      ],
      "min": [
        0.67450982332229614,
        0.070588238537311554,
        0.070588238537311554,
        1
      ],
      "type": "VEC4"
    },
    {
      "bufferView": 0,
      "byteOffset": 191040,
      "componentType": 5125,
      "count": 10824,
      "max": [
        1807
      ],
      "min": [
        0
      ],
      "type": "SCALAR"
    },
    {
      "bufferView": 1,
      "byteOffset": 234912,
      "componentType": 5126,
      "count": 1892,
      "max": [
        0.59817051887512207,
        0.55187660455703735,
        -0.31981551647186279
      ],
      "min": [
        0.025623129680752754,
        -0.74230360984802246,
        -0.38747778534889221
      ],
      "type": "VEC3"
    },
    {
      "bufferView": 1,
      "byteOffset": 257616,
      "componentType": 5126,
      "count": 1892,
      "max": [
        0.9986531138420105,
        0.99957430362701416,
        0.99995458126068115
      ],
      "min": [
        -0.99904781579971313,
        -0.99934875965118408,
        -0.99955272674560547
      ],
      "type": "VEC3"
    },
    {
      "bufferView": 2,
      "byteOffset": 156608,
      "componentType": 5126,
      "count": 1892,
      "max": [
        0.78431373834609985,
        0.729411780834198,
        0.10588235408067703,
        1
      ],
      "min": [
        0.7764706015586853,
        0.070588238537311554,
        0.070588238537311554,
        1
      ],
      "type": "VEC4"
    },
    {
      "bufferView": 0,
      "byteOffset": 234336,
      "componentType": 5125,
      "count": 11328,
      "max": [
        1891
      ],
      "min": [
        0
      ],
      "type": "SCALAR"
    },
    {
      "bufferView": 1,
      "byteOffset": 280320,
      "componentType": 5126,
      "count": 1908,
      "max": [
        0.33045050501823425,
        0.63069665431976318,
        -0.33811503648757935
      ],
      "min": [
        0.24936521053314209,
        -0.61084377765655518,
        -0.38336113095283508
      ],
      "type": "VEC3"
    },
    {
      "bufferView": 1,
      "byteOffset": 303216,
      "componentType": 5126,
      "count": 1908,
      "max": [
        0.99997830390930176,
        0.99996763467788696,
        0.99979311227798462
      ],
      "min": [
        -0.99989718198776245,
        -0.99985086917877197,
        -0.99970835447311401
      ],
      "type": "VEC3"
    },
    {
      "bufferView": 2,
      "byteOffset": 186880,
      "componentType": 5126,
      "count": 1908,
      "max": [
        0.39215686917304993,
        0.78431373834609985,
        0.78431373834609985,
        1
      ],
      "min": [
        0.070588238537311554,
        0.67450982332229614,
        0.070588238537311554,
        1
      ],
      "type": "VEC4"
    },
    {
      "bufferView": 0,
      "byteOffset": 279648,
      "componentType": 5125,
      "count": 11424,
      "max": [
        1907
      ],
      "min": [
        0
      ],
      "type": "SCALAR"
    },
    {
      "bufferView": 1,
      "byteOffset": 326112,
      "componentType": 5126,
      "count": 2080,
      "max": [
        0.67886996269226074,
        -0.10408279299736023,
        -0.33834031224250793
      ],
      "min": [
        -0.64711296558380127,
        -0.30355232954025269,
        -0.38851511478424072
      ],
      "type": "VEC3"
    },
    {
      "bufferView": 1,
      "byteOffset": 351072,
      "componentType": 5126,
      "count": 2080,
      "max": [
        0.9997248649597168,
        0.9998738169670105,
        0.99998223781585693
      ],
      "min": [
        -0.99910253286361694,
        -0.99669939279556274,
        -0.9999271035194397
      ],
      "type": "VEC3"
    },
    {
      "bufferView": 2,
      "byteOffset": 217408,
      "componentType": 5126,
      "count": 2080,
      "max": [
        0.35294118523597717,
        0.78431373834609985,
        0.78431373834609985,
        1
      ],
      "min": [
        0.070588238537311554,
        0.67450982332229614,
        0.070588238537311554,
        1
      ],
      "type": "VEC4"
    },
    {
      "bufferView": 0,
      "byteOffset": 325344,
      "componentType": 5125,
      "count": 12456,
      "max": [
        2079
      ],
      "min": [
        0
      ],
      "type": "SCALAR"
    },
    {
      "bufferView": 1,
      "byteOffset": 376032,
      "componentType": 5126,
      "count": 1980,
      "max": [
        0.95744764804840088,
        0.97001248598098755,
        0.34765666723251343
      ],
      "min": [
        -0.95744770765304565,
        -0.96037161350250244,
        -0.34778031706809998
      ],
      "type": "VEC3"
    },
    {
      "bufferView": 1,
      "byteOffset": 399792,
      "componentType": 5126,
      "count": 1980,
      "max": [
        0.99946355819702148,
        0.99970710277557373,
        0.99999767541885376
      ],
      "min": [
        -0.99946367740631104,
        -0.99934589862823486,
        -0.99998033046722412
      ],
      "type": "VEC3"
    },
    {
      "bufferView": 2,
      "byteOffset": 250688,
      "componentType": 5126,
      "count": 1980,
      "max": [
        0.72156864404678345,
        0.50980395078659058,
        0.21176470816135406,
        1
      ],
      "min": [
        0.71764707565307617,
        0.5058823823928833,
        0.20784313976764679,
        1
      ],
      "type": "VEC4"
    },
    {
      "bufferView": 0,
      "byteOffset": 375168,
      "componentType": 5125,
      "count": 11880,
      "max": [
        1979
      ],
      "min": [
        0
      ],
      "type": "SCALAR"
    },
    {
      "bufferView": 1,
      "byteOffset": 423552,
      "componentType": 5126,
      "count": 33280,
      "max": [
        0.97491610050201416,
        0.96586871147155762,
        0.055921111255884171
      ],
      "min": [
        -0.97705882787704468,
        -0.88822072744369507,
        -0.36469918489456177
      ],
      "type": "VEC3"
    },
    {
      "bufferView": 1,
      "byteOffset": 822912,
      "componentType": 5126,
      "count": 33280,
      "max": [
        0.99988347291946411,
        0.99983006715774536,
        0.9999995231628418
      ],
      "min": [
        -0.99997812509536743,
        -0.99893075227737427,
        -0.99999946355819702
      ],
      "type": "VEC3"
    },
    {
      "bufferView": 2,
      "byteOffset": 282368,
      "componentType": 5126,
      "count": 33280,
      "max": [
        0.92549020051956177,
        0.61960786581039429,
        0.91372549533843994,
        1
      ],
      "min": [
        0.91764706373214722,
        0.61176472902297974,
        0.90980392694473267,
        1
      ],
      "type": "VEC4"
    },
    {
      "bufferView": 0,
      "byteOffset": 422688,
      "componentType": 5125,
      "count": 199680,
      "max": [
        33279
      ],
      "min": [
        0
      ],
      "type": "SCALAR"
    }
  ],
  "asset": {
    "extras": {
      "author": "JoelHdez (https://sketchfab.com/JoelHdez)",
      "license": "CC-BY-4.0 (http://creativecommons.org/licenses/by/4.0/)",
      "source": "https://sketchfab.com/models/0bc473ee934f44c6bd124717cdf58c93",
      "title": "Glazed donut_simple model"
    },
    "generator": "Sketchfab-3.18.7",
    "version": "2.0"
  },
  "bufferViews": [
    {
      "buffer": 0,
      "byteLength": 1221408,
      "byteOffset": 0,
      "name": "floatBufferViews",
      "target": 34963
    },
    {
      "buffer": 0,
      "byteLength": 1222272,
      "byteOffset": 1221408,
      "byteStride": 12,
      "name": "floatBufferViews",
      "target": 34962
    },
    {
      "buffer": 0,
      "byteLength": 814848,
      "byteOffset": 2443680,
      "byteStride": 16,
      "name": "floatBufferViews",
      "target": 34962
    }
  ],
  "buffers": [
    {
      "byteLength": 3258528,
      "uri": "scene.bin"
    }
  ],
  "materials": [
    {
      "doubleSided": true,
      "emissiveFactor": [
        0,
        0,
        0
      ],
      "name": "Scene_-_Root",
      "pbrMetallicRoughness": {
        "baseColorFactor": [
          1,
          1,
          1,
          1
        ],
        "metallicFactor": 0,
        "roughnessFactor": 0.59999999999999998
      }
    }
  ],
  "meshes": [
    {
      "primitives": [
        {
          "attributes": {
            "COLOR_0": 2,
            "NORMAL": 1,
            "POSITION": 0
          },
          "indices": 3,
          "material": 0,
          "mode": 4
        }
      ]
    },
    {
      "primitives": [
        {
          "attributes": {
            "COLOR_0": 6,
            "NORMAL": 5,
            "POSITION": 4
          },
          "indices": 7,
          "material": 0,
          "mode": 4
        }
      ]
    },
    {
      "primitives": [
        {
          "attributes": {
            "COLOR_0": 10,
            "NORMAL": 9,
            "POSITION": 8
          },
          "indices": 11,
          "material": 0,
          "mode": 4
        }
      ]
    },
    {
      "primitives": [
        {
          "attributes": {
            "COLOR_0": 14,
            "NORMAL": 13,
            "POSITION": 12
          },
          "indices": 15,
          "material": 0,
          "mode": 4
        }
      ]
    },
    {
      "primitives": [
        {
          "attributes": {
            "COLOR_0": 18,
            "NORMAL": 17,
            "POSITION": 16
          },
          "indices": 19,
          "material": 0,
          "mode": 4
        }
      ]
    },
    {
      "primitives": [
        {
          "attributes": {
            "COLOR_0": 22,
            "NORMAL": 21,
            "POSITION": 20
          },
          "indices": 23,
          "material": 0,
          "mode": 4
        }
      ]
    },
    {
      "primitives": [
        {
          "attributes": {
            "COLOR_0": 26,
            "NORMAL": 25,
            "POSITION": 24
          },
          "indices": 27,
          "material": 0,
          "mode": 4
        }
      ]
    },
    {
      "primitives": [
        {
          "attributes": {
            "COLOR_0": 30,
            "NORMAL": 29,
            "POSITION": 28
          },
          "indices": 31,
          "material": 0,
          "mode": 4
        }
      ]
    },
    {
      "primitives": [
        {
          "attributes": {
            "COLOR_0": 34,
            "NORMAL": 33,
            "POSITION": 32
          },
          "indices": 35,
          "material": 0,
          "mode": 4
        }
      ]
    },
    {
      "primitives": [
        {
          "attributes": {
            "COLOR_0": 38,
            "NORMAL": 37,
            "POSITION": 36
          },
          "indices": 39,
          "material": 0,
          "mode": 4
        }
      ]
    }
  ],
  "nodes": [
    {
      "children": [
        1
      ],
      "name": "RootNode (gltf orientation matrix)",
      "rotation": [
        -0.70710678118654746,
        -0,
        -0,
        0.70710678118654757
      ]
    },
    {
      "children": [
        2
      ],
      "matrix": [
        0,
        1,
        0,
        0,
        1,
        0,
        0,
        0,
        0,
        0,
        -1,
        0,
        -0.0058912336826324463,
        0.0058912336826324463,
        -0.040857464075088501,
        1
      ],
      "name": "RootNode (model correction matrix)"
    },
    {
      "children": [
        3,
        4,
        5,
        6,
        7,
        8,
        9,
        10,
        11,
        12
      ],
      "name": "donut.OBJ.cleaner.materialmerger.gles"
    },
    {
      "mesh": 0,
      "name": ""
    },
    {
      "mesh": 1,
      "name": ""
    },
    {
      "mesh": 2,
      "name": ""
    },
    {
      "mesh": 3,
      "name": ""
    },
    {
      "mesh": 4,
      "name": ""
    },
    {
      "mesh": 5,
      "name": ""
    },
    {
      "mesh": 6,
      "name": ""
    },
    {
      "mesh": 7,
      "name": ""
    },
    {
      "mesh": 8,
      "name": ""
    },
    {
      "mesh": 9,
      "name": ""
    }
  ],
  "scene": 0,
  "scenes": [
    {
      "name": "OSG_Scene",
      "nodes": [
        0
      ]
    }
  ]
}

